{
  "accessors": [
    {
      "bufferView": 2,
      "componentType": 5126,
      "count": 222,
      "max": [
        8.145999908447266,
        8.320099830627441,
        -0.0003000000142492354
      ],
      "min": [
        -8.328298568725586,
        -8.154199600219727,
        -0.44029998779296875
      ],
      "type": "VEC3"
    },
    {
      "bufferView": 2,
      "byteOffset": 2664,
      "componentType": 5126,
      "count": 222,
      "max": [
        0.9695764183998108,
        0.9695767760276794,
        1.0
      ],
      "min": [
        -0.9695775508880615,
        -0.9695800542831421,
        -1.0
      ],
      "type": "VEC3"
    },
    {
      "bufferView": 3,
      "componentType": 5126,
      "count": 222,
      "max": [
        1.0,
        0.8433842062950134,
        0.9691764116287231,
        1.0
      ],
      "min": [
        -0.7071065306663513,
        -0.845011293888092,
        -0.9691804647445679,
        1.0
      ],
      "type": "VEC4"
    },
    {
      "bufferView": 1,
      "componentType": 5126,
      "count": 222,
      "max": [
        0.9928950071334839,
        0.9937310218811035
      ],
      "min": [
        0.004726999904960394,
        0.004666999913752079
      ],
      "type": "VEC2"
    },
    {
      "bufferView": 0,
      "componentType": 5125,
      "count": 1056,
      "type": "SCALAR"
    },
    {
      "bufferView": 2,
      "byteOffset": 5328,
      "componentType": 5126,
      "count": 1280,
      "max": [
        7.741000175476074,
        7.581900119781494,
        0.4455989897251129
      ],
      "min": [
        -7.643398761749268,
        -7.585599899291992,
        -0.00039900001138448715
      ],
      "type": "VEC3"
    },
    {
      "bufferView": 2,
      "byteOffset": 20688,
      "componentType": 5126,
      "count": 1280,
      "max": [
        0.9831359386444092,
        0.975826621055603,
        1.0
      ],
      "min": [
        -0.9839935898780823,
        -0.9586029648780823,
        -1.0
      ],
      "type": "VEC3"
    },
    {
      "bufferView": 3,
      "byteOffset": 3552,
      "componentType": 5126,
      "count": 1280,
      "max": [
        1.0,
        0.9992944002151489,
        0.966577410697937,
        1.0
      ],
      "min": [
        -0.7848981022834778,
        -0.5453342795372009,
        -0.9766454696655273,
        1.0
      ],
      "type": "VEC4"
    },
    {
      "bufferView": 1,
      "byteOffset": 1776,
      "componentType": 5126,
      "count": 1280,
      "max": [
        0.994022011756897,
        0.9932289719581604
      ],
      "min": [
        0.00612299982458353,
        0.00646300008520484
      ],
      "type": "VEC2"
    },
    {
      "bufferView": 0,
      "byteOffset": 4224,
      "componentType": 5125,
      "count": 7368,
      "type": "SCALAR"
    }
  ],
  "asset": {
    "extras": {
      "author": "Gurkha (https://sketchfab.com/gurkha)",
      "license": "CC-BY-4.0 (http://creativecommons.org/licenses/by/4.0/)",
      "source": "https://sketchfab.com/3d-models/pizza-53ea3b41f92c475295367c1096538573",
      "title": "Pizza"
    },
    "generator": "Sketchfab-12.97.0",
    "version": "2.0"
  },
  "bufferViews": [
    {
      "buffer": 0,
      "byteLength": 33696,
      "name": "floatBufferViews",
      "target": 34963
    },
    {
      "buffer": 0,
      "byteLength": 12016,
      "byteOffset": 33696,
      "byteStride": 8,
      "name": "floatBufferViews",
      "target": 34962
    },
    {
      "buffer": 0,
      "byteLength": 36048,
      "byteOffset": 45712,
      "byteStride": 12,
      "name": "floatBufferViews",
      "target": 34962
    },
    {
      "buffer": 0,
      "byteLength": 24032,
      "byteOffset": 81760,
      "byteStride": 16,
      "name": "floatBufferViews",
      "target": 34962
    }
  ],
  "buffers": [
    {
      "byteLength": 105792,
      "uri": "scene.bin"
    }
  ],
  "images": [
    {
      "uri": "textures/Wood_baseColor.png"
    },
    {
      "uri": "textures/Wood_metallicRoughness.png"
    },
    {
      "uri": "textures/Wood_normal.png"
    },
    {
      "uri": "textures/Pizza_baseColor.png"
    },
    {
      "uri": "textures/Pizza_metallicRoughness.png"
    },
    {
      "uri": "textures/Pizza_normal.png"
    }
  ],
  "materials": [
    {
      "doubleSided": true,
      "name": "Wood",
      "normalTexture": {
        "index": 2
      },
      "occlusionTexture": {
        "index": 1
      },
      "pbrMetallicRoughness": {
        "baseColorTexture": {
          "index": 0
        },
        "metallicFactor": 0.0,
        "metallicRoughnessTexture": {
          "index": 1
        }
      }
    },
    {
      "doubleSided": true,
      "name": "Pizza",
      "normalTexture": {
        "index": 5
      },
      "occlusionTexture": {
        "index": 4
      },
      "pbrMetallicRoughness": {
        "baseColorTexture": {
          "index": 3
        },
        "metallicFactor": 0.0,
        "metallicRoughnessTexture": {
          "index": 4
        }
      }
    }
  ],
  "meshes": [
    {
      "name": "Wood_Wood_0",
      "primitives": [
        {
          "attributes": {
            "NORMAL": 1,
            "POSITION": 0,
            "TANGENT": 2,
            "TEXCOORD_0": 3
          },
          "indices": 4,
          "material": 0,
          "mode": 4
        }
      ]
    },
    {
      "name": "Pizza_Pizza_0",
      "primitives": [
        {
          "attributes": {
            "NORMAL": 6,
            "POSITION": 5,
            "TANGENT": 7,
            "TEXCOORD_0": 8
          },
          "indices": 9,
          "material": 1,
          "mode": 4
        }
      ]
    }
  ],
  "nodes": [
    {
      "children": [
        1
      ],
      "matrix": [
        1.0,
        0.0,
        0.0,
        0.0,
        0.0,
        2.220446049250313e-16,
        -1.0,
        0.0,
        0.0,
        1.0,
        2.220446049250313e-16,
        0.0,
        0.0,
        0.0,
        0.0,
        1.0
      ],
      "name": "Sketchfab_model"
    },
    {
      "children": [
        2
      ],
      "matrix": [
        0.009999999776482582,
        0.0,
        0.0,
        0.0,
        0.0,
        0.0,
        0.009999999776482582,
        0.0,
        0.0,
        -0.009999999776482582,
        0.0,
        0.0,
        0.0,
        0.0,
        0.0,
        1.0
      ],
      "name": "768180ba690348319bea2081a88e0435.fbx"
    },
    {
      "children": [
        3,
        5
      ],
      "name": "RootNode"
    },
    {
      "children": [
        4
      ],
      "matrix": [
        2.5399999618530273,
        0.0,
        0.0,
        0.0,
        0.0,
        5.6399328803925005e-16,
        -2.5399999618530273,
        0.0,
        0.0,
        2.5399999618530273,
        5.6399328803925005e-16,
        0.0,
        0.0,
        0.0,
        0.0,
        1.0
      ],
      "name": "Wood"
    },
    {
      "mesh": 0,
      "name": "Wood_Wood_0"
    },
    {
      "children": [
        6
      ],
      "matrix": [
        2.5399999618530273,
        0.0,
        0.0,
        0.0,
        0.0,
        5.6399328803925005e-16,
        -2.5399999618530273,
        0.0,
        0.0,
        2.5399999618530273,
        5.6399328803925005e-16,
        0.0,
        0.0,
        0.0,
        0.0,
        1.0
      ],
      "name": "Pizza"
    },
    {
      "mesh": 1,
      "name": "Pizza_Pizza_0"
    }
  ],
  "samplers": [
    {
      "magFilter": 9729,
      "minFilter": 9987,
      "wrapS": 10497,
      "wrapT": 10497
    }
  ],
  "scene": 0,
  "scenes": [
    {
      "name": "Sketchfab_Scene",
      "nodes": [
        0
      ]
    }
  ],
  "textures": [
    {
      "sampler": 0,
      "source": 0
    },
    {
      "sampler": 0,
      "source": 1
    },
    {
      "sampler": 0,
      "source": 2
    },
    {
      "sampler": 0,
      "source": 3
    },
    {
      "sampler": 0,
      "source": 4
    },
    {
      "sampler": 0,
      "source": 5
    }
  ]
}
